<svg xmlns="http://www.w3.org/2000/svg" width="1520" height="1090" viewBox="0 0 1520 1090">
<rect width="100%" height="100%" fill="#0b1526"/>
<text x="760" y="46" font-size="26" text-anchor="middle" font-family="Georgia" fill="#dce8f7">🎯➜ EL CENTRO CORRIDO — el ½ es otro número en otra medición</text>
<text x="760" y="74" font-size="15" text-anchor="middle" font-family="Georgia" fill="#8fb4d9">se construyó un SEGUNDO LIBRO (la Δ de Ramanujan) para probarlo: su centro es 6</text>
<rect x="40" y="100" width="700" height="420" rx="10" fill="#101f36" stroke="#26456e"/>
<text x="390" y="130" font-size="18" text-anchor="middle" font-family="Georgia" fill="#ffd98a">LIBRO 1 · ζ de Riemann</text>
<text x="390" y="154" font-size="14" text-anchor="middle" font-family="monospace" fill="#bfe3ff">ζ(s) = Σ 1/nˢ   ·   peso 0   ·   ξ(s) = ξ(1−s)</text>
<line x1="390" y1="190" x2="390" y2="470" stroke="#7ee0c0" stroke-width="3"/>
<text x="390" y="186" font-size="15" text-anchor="middle" font-family="monospace" fill="#7ee0c0">Re s = 0.5   ← LA MEDIATRIZ</text>
<circle cx="160" cy="470" r="7" fill="#ffb27a"/><circle cx="620" cy="470" r="7" fill="#ffb27a"/>
<line x1="160" y1="470" x2="620" y2="470" stroke="#3d6fa8" stroke-width="1.5" stroke-dasharray="4 4"/>
<text x="160" y="494" font-size="13" text-anchor="middle" font-family="monospace" fill="#ffb27a">estaca 0</text>
<text x="620" y="494" font-size="13" text-anchor="middle" font-family="monospace" fill="#ffb27a">estaca 1</text>
<circle cx="390" cy="455.0" r="3.2" fill="#7ee0c0"/><circle cx="390" cy="447.8" r="3.2" fill="#7ee0c0"/><circle cx="390" cy="443.5" r="3.2" fill="#7ee0c0"/><circle cx="390" cy="437.8" r="3.2" fill="#7ee0c0"/><circle cx="390" cy="435.2" r="3.2" fill="#7ee0c0"/><circle cx="390" cy="430.2" r="3.2" fill="#7ee0c0"/><circle cx="390" cy="426.7" r="3.2" fill="#7ee0c0"/><circle cx="390" cy="424.2" r="3.2" fill="#7ee0c0"/><circle cx="390" cy="419.2" r="3.2" fill="#7ee0c0"/><circle cx="390" cy="417.4" r="3.2" fill="#7ee0c0"/><circle cx="390" cy="414.0" r="3.2" fill="#7ee0c0"/><circle cx="390" cy="410.3" r="3.2" fill="#7ee0c0"/><circle cx="390" cy="407.2" r="3.2" fill="#7ee0c0"/><circle cx="390" cy="405.7" r="3.2" fill="#7ee0c0"/><circle cx="390" cy="401.1" r="3.2" fill="#7ee0c0"/><circle cx="390" cy="399.1" r="3.2" fill="#7ee0c0"/><circle cx="390" cy="396.4" r="3.2" fill="#7ee0c0"/><circle cx="390" cy="393.8" r="3.2" fill="#7ee0c0"/><circle cx="390" cy="389.9" r="3.2" fill="#7ee0c0"/><circle cx="390" cy="388.4" r="3.2" fill="#7ee0c0"/><circle cx="390" cy="386.1" r="3.2" fill="#7ee0c0"/><circle cx="390" cy="382.3" r="3.2" fill="#7ee0c0"/><circle cx="390" cy="380.4" r="3.2" fill="#7ee0c0"/><circle cx="390" cy="377.5" r="3.2" fill="#7ee0c0"/><circle cx="390" cy="376.1" r="3.2" fill="#7ee0c0"/><circle cx="390" cy="372.2" r="3.2" fill="#7ee0c0"/><circle cx="390" cy="369.9" r="3.2" fill="#7ee0c0"/><circle cx="390" cy="368.6" r="3.2" fill="#7ee0c0"/><circle cx="390" cy="365.5" r="3.2" fill="#7ee0c0"/><circle cx="390" cy="362.8" r="3.2" fill="#7ee0c0"/><circle cx="390" cy="360.3" r="3.2" fill="#7ee0c0"/><circle cx="390" cy="358.5" r="3.2" fill="#7ee0c0"/><circle cx="390" cy="356.6" r="3.2" fill="#7ee0c0"/><circle cx="390" cy="352.6" r="3.2" fill="#7ee0c0"/><circle cx="390" cy="351.7" r="3.2" fill="#7ee0c0"/><circle cx="390" cy="349.1" r="3.2" fill="#7ee0c0"/><circle cx="390" cy="347.1" r="3.2" fill="#7ee0c0"/><circle cx="390" cy="344.4" r="3.2" fill="#7ee0c0"/><circle cx="390" cy="341.6" r="3.2" fill="#7ee0c0"/><circle cx="390" cy="340.0" r="3.2" fill="#7ee0c0"/><circle cx="390" cy="338.6" r="3.2" fill="#7ee0c0"/><circle cx="390" cy="335.1" r="3.2" fill="#7ee0c0"/><circle cx="390" cy="332.9" r="3.2" fill="#7ee0c0"/><circle cx="390" cy="331.3" r="3.2" fill="#7ee0c0"/><circle cx="390" cy="328.8" r="3.2" fill="#7ee0c0"/><circle cx="390" cy="327.5" r="3.2" fill="#7ee0c0"/><circle cx="390" cy="323.9" r="3.2" fill="#7ee0c0"/><circle cx="390" cy="322.2" r="3.2" fill="#7ee0c0"/><circle cx="390" cy="320.7" r="3.2" fill="#7ee0c0"/><circle cx="390" cy="318.6" r="3.2" fill="#7ee0c0"/><circle cx="390" cy="315.6" r="3.2" fill="#7ee0c0"/><circle cx="390" cy="314.1" r="3.2" fill="#7ee0c0"/><circle cx="390" cy="311.3" r="3.2" fill="#7ee0c0"/><circle cx="390" cy="310.4" r="3.2" fill="#7ee0c0"/><circle cx="390" cy="308.1" r="3.2" fill="#7ee0c0"/><circle cx="390" cy="304.9" r="3.2" fill="#7ee0c0"/><circle cx="390" cy="303.3" r="3.2" fill="#7ee0c0"/><circle cx="390" cy="302.0" r="3.2" fill="#7ee0c0"/><circle cx="390" cy="299.5" r="3.2" fill="#7ee0c0"/><circle cx="390" cy="297.6" r="3.2" fill="#7ee0c0"/><circle cx="390" cy="294.9" r="3.2" fill="#7ee0c0"/><text x="390" y="512" font-size="13" text-anchor="middle" font-family="Georgia" fill="#9fd8a8">114 ceros, todos parados en su propia mediatriz</text><rect x="780" y="100" width="700" height="420" rx="10" fill="#101f36" stroke="#26456e"/>
<text x="1130" y="130" font-size="18" text-anchor="middle" font-family="Georgia" fill="#ffd98a">LIBRO 2 · Δ de Ramanujan</text>
<text x="1130" y="154" font-size="14" text-anchor="middle" font-family="monospace" fill="#bfe3ff">L(s,Δ) = Σ τ(n)/nˢ   ·   peso 11   ·   Λ(s) = Λ(12−s)</text>
<line x1="1130" y1="190" x2="1130" y2="470" stroke="#c9b6ff" stroke-width="3"/>
<text x="1130" y="186" font-size="15" text-anchor="middle" font-family="monospace" fill="#c9b6ff">Re s = 6   ← LA MEDIATRIZ</text>
<circle cx="900" cy="470" r="7" fill="#ffb27a"/><circle cx="1360" cy="470" r="7" fill="#ffb27a"/>
<line x1="900" y1="470" x2="1360" y2="470" stroke="#3d6fa8" stroke-width="1.5" stroke-dasharray="4 4"/>
<text x="900" y="494" font-size="13" text-anchor="middle" font-family="monospace" fill="#ffb27a">estaca 0</text>
<text x="1360" y="494" font-size="13" text-anchor="middle" font-family="monospace" fill="#ffb27a">estaca 12</text>
<circle cx="1130" cy="448.9" r="3.2" fill="#7ee0c0"/><circle cx="1130" cy="438.1" r="3.2" fill="#7ee0c0"/><circle cx="1130" cy="430.0" r="3.2" fill="#7ee0c0"/><circle cx="1130" cy="425.0" r="3.2" fill="#7ee0c0"/><circle cx="1130" cy="418.8" r="3.2" fill="#7ee0c0"/><circle cx="1130" cy="412.1" r="3.2" fill="#7ee0c0"/><circle cx="1130" cy="408.6" r="3.2" fill="#7ee0c0"/><text x="1130" y="512" font-size="13" text-anchor="middle" font-family="Georgia" fill="#9fd8a8">7 ceros, todos parados en su propia mediatriz</text><rect x="40" y="540" width="700" height="230" rx="10" fill="#161a3a" stroke="#5a4fa8"/>
<text x="390" y="570" font-size="17" text-anchor="middle" font-family="Georgia" fill="#c9b6ff">CORRÉS EL CENTRO Y EL MEDIO ES OTRO NÚMERO</text>
<text x="66" y="602" font-size="13" font-family="monospace" fill="#7fa8cf">  libro                peso w   espejo        centro</text>
<text x="66" y="626" font-size="13.5" font-family="monospace" fill="#cfe6ff">  ζ de Riemann            0    s ↔ 1−s          ½</text>
<text x="66" y="648" font-size="13.5" font-family="monospace" fill="#cfe6ff">  Δ de Ramanujan         11    s ↔ 12−s          6</text>
<text x="66" y="670" font-size="13.5" font-family="monospace" fill="#cfe6ff">  forma de peso 16       15    s ↔ 16−s          8</text>
<text x="66" y="692" font-size="13.5" font-family="monospace" fill="#cfe6ff">  forma de peso 24       23    s ↔ 24−s         12</text>
<text x="390" y="724" font-size="16" text-anchor="middle" font-family="monospace" fill="#ffd98a">centro = (w+1)/2</text>
<text x="390" y="750" font-size="13.5" text-anchor="middle" font-family="Georgia" fill="#9fd8a8">el ½ es SOLO el caso peso 0. Nunca fue sagrado.</text>

<rect x="780" y="540" width="700" height="230" rx="10" fill="#101f36" stroke="#26456e"/>
<text x="1130" y="570" font-size="17" text-anchor="middle" font-family="Georgia" fill="#ffd98a">«¿POR QUÉ TODOS LOS PÍXELES SON IGUALES?»</text>
<text x="806" y="600" font-size="13.5" font-family="Georgia" fill="#cfe6ff">el segundo libro reproduce los ceros PUBLICADOS de L(s,Δ),</text>
<text x="806" y="620" font-size="13.5" font-family="Georgia" fill="#cfe6ff">que no entraron en ningún lado del cálculo:</text>
<text x="806" y="648" font-size="14" font-family="monospace" fill="#7ee0c0">  6 ceros · peor desvío 3.0e-05</text>
<text x="806" y="672" font-size="14" font-family="monospace" fill="#7ee0c0">  contra su serie de Dirichlet: 8.5e-05</text>
<text x="806" y="700" font-size="13.5" font-family="Georgia" fill="#ffb27a">⚠ ¿Y LOS PÍXELES IGUALES? ACÁ EL TALLER SE PARA:</text>
<text x="806" y="720" font-size="12.5" font-family="Georgia" fill="#ffb27a">con 3 huecos de Δ contra 108 de ζ, comparar estadísticas sería</text>
<text x="806" y="738" font-size="12.5" font-family="Georgia" fill="#ffb27a">inventar. La universalidad está observada por otros en millones</text>
<text x="806" y="756" font-size="12.5" font-family="Georgia" fill="#ffb27a">de ceros y sigue CONJETURAL. Hoy NO la verificamos.</text>
<rect x="40" y="790" width="1440" height="266" rx="10" fill="#0f2b22" stroke="#2f7f63"/>
<text x="760" y="822" font-size="19" text-anchor="middle" font-family="Georgia" fill="#9fd8a8">LO QUE ESTO CAMBIA — y no es poco</text>
<text x="760" y="862" font-size="24" text-anchor="middle" font-family="Georgia" fill="#ffd98a">EL ½ NUNCA FUE EL MISTERIO</text>
<text x="760" y="892" font-size="14.5" text-anchor="middle" font-family="Georgia" fill="#cfe6ff">el ½ es un accidente de dónde están las dos estacas de ESTE libro. Cambiás de libro y el medio es 6, u 8, o 12.</text>
<text x="760" y="928" font-size="19" text-anchor="middle" font-family="Georgia" fill="#c9b6ff">¿POR QUÉ TODOS LOS CEROS SE PARAN EN LA MEDIATRIZ, SEA EL NÚMERO QUE SEA?</text>
<text x="760" y="958" font-size="14" text-anchor="middle" font-family="Georgia" fill="#cfe6ff">ésa es la Hipótesis de Riemann GENERALIZADA, abierta para todos los libros a la vez. El capitán sacó el ½ del medio de la pregunta.</text>
<text x="760" y="992" font-size="14" text-anchor="middle" font-family="Georgia" fill="#8fb4d9">🧬 y la pista del ADN: dos hebras, cada una determinando la otra, enroscadas al mismo eje — regla local universal, secuencia global única.</text>
<text x="760" y="1012" font-size="13.5" text-anchor="middle" font-family="Georgia" fill="#8fb4d9">Es una ANALOGÍA buena para ver la forma, y acá no se usa como argumento de nada.</text>
<text x="760" y="1042" font-size="14" text-anchor="middle" font-family="Georgia" fill="#ffb27a">⚖️ ayuda a preguntar mejor, y eso vale. Pero la mediatriz sigue sin razón conocida. Todavía no.</text>
</svg>
